<svg xmlns="http://www.w3.org/2000/svg" width="52" height="54" viewBox="0 0 52 54">
  <g fill="none" fill-rule="evenodd" transform="translate(-73 -77)">
    <path fill="#C88080" stroke="#843030" stroke-width="2" d="M86.324555,86.2985087 C89.278169,84.9357346 92.0494043,83.5187343 94.6382608,82.0475079 C101.465942,77.2096597 107.758887,76.7086978 113.517095,80.5446221 C119.275304,84.3805465 122.547587,88.6978238 123.333944,93.4964539 C123.140592,100.502252 123.345357,106.127749 123.948238,110.372944 C124.85256,116.740736 113.679722,129.276177 108.24523,129.276177 C105.024858,129.276177 102.316509,130.40832 97.2682678,129.840786 C93.7974229,129.450586 87.6225368,127.659967 85.8475391,126.548766 C79.3380857,122.473655 75.2580967,115.999347 74.4409662,111.307934 C72.9846627,102.94682 75.5413498,94.9075725 76.2598157,93.4964539 C77.3814121,91.293558 81.894134,88.3426699 86.324555,86.2985087 Z"/>
    <ellipse cx="100.5" cy="104" fill="#BF7979" stroke="#FFF2F2" stroke-opacity=".205" rx="20" ry="19.5"/>
    <circle cx="101" cy="104" r="18" fill="#C88080"/>
    <text fill="#3B3B3B" font-family="BethEllen-Regular, Beth Ellen" font-size="43">
      <tspan x="73" y="126">D</tspan>
    </text>
  </g>
</svg>
