<svg xmlns="http://www.w3.org/2000/svg" width="497" height="524" viewBox="0 0 497 524">
  <g fill="none" fill-rule="evenodd" transform="translate(-76 -146)">
    <path fill="#C88080" stroke="#843030" stroke-width="2" d="M199.013095,228.86798 C228.253874,215.423689 255.689103,201.444436 281.318782,186.930222 C348.912825,139.202989 411.212979,134.260807 468.219244,172.103676 C525.225509,209.946546 557.621111,252.538146 565.40605,299.878478 C563.491863,368.993373 565.519032,424.491061 571.487558,466.37154 C580.440347,529.19226 469.829247,652.859204 416.027778,652.859204 C384.146095,652.859204 357.333443,664.028231 307.355851,658.42929 C272.994486,654.57982 211.863114,636.914676 194.290637,625.952249 C129.847048,585.749712 89.4551571,521.87817 81.3655654,475.595578 C66.948161,393.109974 92.2593629,313.799706 99.3721752,299.878478 C110.47598,278.146062 155.151927,249.034417 199.013095,228.86798 Z"/>
    <ellipse cx="339" cy="403.5" fill="#BF7979" stroke="#FFF2F2" stroke-opacity=".205" rx="202.5" ry="197"/>
    <ellipse cx="343.5" cy="403.5" fill="#C88080" rx="177.5" ry="178.5"/>
    <text fill="#3B3B3B" font-family="BethEllen-Regular, Beth Ellen" font-size="400">
      <tspan x="77" y="650">D</tspan>
    </text>
  </g>
</svg>
