<svg xmlns="http://www.w3.org/2000/svg" width="190" height="197" viewBox="0 0 190 197">
  <g fill="none" fill-rule="evenodd" transform="translate(-76 -138)">
    <path fill="#C88080" stroke="#843030" stroke-width="2" d="M123.340327,170.119408 C134.445916,165.009005 144.86576,159.695254 154.599861,154.178155 C180.271942,136.036224 203.933414,134.157617 225.584278,148.542333 C247.235143,162.927049 259.538927,179.116839 262.495631,197.111702 C261.768627,223.383446 262.538542,244.479058 264.805376,260.398539 C268.205627,284.27776 226.195754,331.285662 205.762065,331.285662 C193.653467,331.285662 183.470075,335.531199 164.488687,333.402947 C151.43831,331.939698 128.220738,325.224877 121.546747,321.057872 C97.0712022,305.776206 81.7304435,281.49755 78.6580329,263.904752 C73.1823318,232.550575 82.7954752,202.403397 85.4969069,197.111702 C89.7141094,188.850842 106.681944,177.785012 123.340327,170.119408 Z"/>
    <ellipse cx="176.5" cy="236.5" fill="#BF7979" stroke="#FFF2F2" stroke-opacity=".205" rx="77" ry="75"/>
    <circle cx="178.5" cy="236.5" r="67.5" fill="#C88080"/>
    <text fill="#3B3B3B" font-family="BethEllen-Regular, Beth Ellen" font-size="153">
      <tspan x="77" y="324">D</tspan>
    </text>
  </g>
</svg>
