<svg xmlns="http://www.w3.org/2000/svg" width="152" height="157" viewBox="0 0 152 157">
  <g fill="none" fill-rule="evenodd" transform="translate(-79 -77)">
    <path fill="#C88080" stroke="#843030" stroke-width="2" d="M117.544922,103 C126.306641,98.9505208 134.527344,94.7399089 142.207031,90.3681641 C162.460937,75.992513 181.128581,74.5039063 198.209961,85.9023438 C215.291341,97.3007812 224.998372,110.129557 227.331055,124.388672 C226.757487,145.20638 227.364909,161.922526 229.15332,174.537109 C231.835938,193.458984 198.692383,230.708008 182.571289,230.708008 C173.018249,230.708008 164.984095,234.072168 150.008789,232.385742 C139.712736,231.226265 121.395307,225.905447 116.129883,222.603516 C96.8199799,210.494336 84.7169373,191.255949 82.2929688,177.31543 C77.9729319,152.470406 85.5571906,128.581807 87.6884766,124.388672 C91.015625,117.842773 104.402344,109.074219 117.544922,103 Z"/>
    <circle cx="158.5" cy="155.5" r="60" fill="#BF7979" stroke="#FFF2F2" stroke-opacity=".205"/>
    <circle cx="160.5" cy="155.5" r="52.5" fill="#C88080"/>
  </g>
</svg>
